<?xml version="1.0" standalone="no"?>
<!DOCTYPE svg PUBLIC "-//W3C//DTD SVG 20010904//EN"
 "http://www.w3.org/TR/2001/REC-SVG-20010904/DTD/svg10.dtd">
<svg version="1.0" xmlns="http://www.w3.org/2000/svg"
 width="1600.000000pt" height="613.000000pt" viewBox="0 0 1600.000000 613.000000"
 preserveAspectRatio="xMidYMid meet">
<metadata>
Created by potrace 1.16, written by Peter Selinger 2001-2019
</metadata>
<g transform="translate(0.000000,613.000000) scale(0.100000,-0.100000)"
fill="#000000" stroke="none">
<path d="M12055 4985 c-406 -117 -767 -224 -772 -229 -3 -3 37 -94 90 -203 52
-109 97 -204 99 -211 2 -8 -14 -20 -37 -29 -166 -65 -380 -161 -548 -246 -142
-71 -201 -97 -209 -89 -16 16 -47 -3 -42 -25 3 -14 -33 -40 -158 -113 -89 -52
-218 -133 -287 -179 -69 -45 -132 -85 -138 -88 -8 -3 -20 12 -32 38 -10 24
-47 87 -81 139 -72 108 -90 147 -90 189 0 21 -7 34 -21 42 -19 10 -21 9 -16
-18 3 -15 7 -147 9 -293 l3 -264 -105 -80 c-136 -103 -374 -342 -530 -531 -67
-82 -128 -156 -135 -163 -10 -11 -11 0 -7 56 2 41 0 72 -6 75 -6 4 -8 -9 -5
-37 6 -49 -10 -87 -52 -126 l-28 -25 7 115 c5 103 4 118 -14 147 -19 32 -52
48 -87 41 -13 -2 -19 -14 -21 -41 -3 -30 2 -43 27 -67 17 -18 40 -30 55 -30
26 0 26 -1 26 -72 0 -153 -5 -170 -79 -247 l-66 -70 -145 -35 c-80 -20 -183
-43 -230 -51 -47 -8 -95 -18 -107 -20 -39 -9 -28 35 31 121 91 134 107 175
119 294 18 189 13 330 -12 330 -5 0 -5 -16 0 -37 5 -21 9 -65 9 -98 0 -86 -31
-147 -110 -215 l-63 -55 6 45 c4 25 7 134 8 242 2 176 0 200 -17 229 -32 54
-87 91 -143 97 -44 4 -53 1 -76 -23 -25 -24 -27 -32 -23 -81 5 -60 38 -110 99
-152 28 -20 43 -23 87 -20 l52 5 -1 -41 c-3 -165 -25 -636 -30 -641 -16 -15
-270 -27 -378 -18 -61 6 -114 13 -117 16 -4 3 -10 78 -13 166 -4 88 -9 162
-12 164 -4 4 -133 -26 -425 -96 l-102 -24 -91 66 c-172 125 -410 316 -410 329
-1 7 10 32 23 55 13 23 27 61 30 85 l6 43 -30 -33 -31 -33 6 58 c4 37 2 69 -5
87 -19 46 -79 49 -80 5 0 -21 32 -55 51 -55 18 0 19 -8 19 -106 l0 -106 -23
16 c-108 77 -209 138 -316 189 -69 33 -128 62 -130 63 -2 2 1 16 8 31 15 38
18 183 4 208 -10 17 -11 13 -6 -22 7 -53 0 -81 -31 -116 l-24 -27 -6 22 c-3
13 -6 62 -6 110 0 82 -1 88 -27 108 -33 26 -86 24 -91 -3 -10 -51 48 -115 90
-101 16 5 18 -4 18 -90 0 -53 -2 -96 -4 -96 -3 0 -51 11 -108 25 -256 60 -565
57 -784 -10 -78 -24 -77 -24 -70 53 4 37 9 84 12 105 6 41 -2 46 -33 18 -17
-16 -22 -37 -28 -116 -5 -57 -12 -98 -19 -100 -104 -35 -307 -110 -328 -121
-40 -22 -48 -18 -48 26 0 30 -7 47 -25 65 -27 28 -76 33 -95 10 -30 -36 26
-115 82 -115 43 0 30 -10 -67 -53 -44 -19 -163 -72 -265 -117 -470 -210 -611
-251 -822 -242 l-48 2 0 78 c0 73 -9 102 -33 102 -5 0 -6 -37 -2 -86 l8 -87
-48 7 c-45 7 -197 45 -203 50 -1 2 5 19 13 39 17 41 21 193 5 217 -6 9 -7 -4
-3 -41 5 -50 3 -58 -23 -89 l-29 -34 -7 50 c-3 27 -7 73 -7 102 -1 67 -33 105
-84 100 -34 -3 -43 -21 -33 -64 8 -29 64 -66 88 -58 16 5 18 -4 18 -100 l0
-104 -87 35 c-189 76 -422 207 -570 320 -65 49 -71 57 -60 75 10 16 9 22 -7
34 -11 8 -32 14 -47 14 -36 0 -39 14 -39 190 0 136 -6 170 -30 170 -3 0 -4
-78 -2 -172 l4 -173 -34 31 c-18 17 -79 70 -136 118 l-102 87 20 29 c41 58 60
116 62 194 1 41 -2 80 -7 85 -7 7 -9 -8 -7 -42 3 -46 -1 -56 -28 -89 -17 -21
-35 -38 -38 -38 -4 0 -6 46 -4 102 2 55 1 112 -2 124 -8 30 -60 58 -92 50 -20
-5 -24 -13 -24 -44 0 -48 35 -85 80 -85 23 0 29 -4 25 -14 -3 -8 -5 -69 -5
-134 l0 -120 -82 64 c-113 88 -217 153 -325 206 -107 52 -103 42 -103 247 0
184 -8 248 -32 263 -19 12 -20 9 -12 -218 l7 -230 -109 34 c-60 19 -128 39
-151 45 l-42 10 15 35 c15 38 20 210 6 219 -5 3 -7 -16 -5 -42 4 -38 0 -54
-19 -81 -41 -61 -48 -53 -48 57 0 84 -3 103 -20 125 -23 29 -66 43 -86 26 -41
-33 6 -119 66 -119 l30 0 0 -105 0 -105 -37 5 c-76 12 -243 20 -243 13 0 -5
-13 -8 -30 -8 -26 0 -30 4 -30 28 0 41 -39 74 -81 70 -28 -2 -35 -8 -37 -29
-2 -17 6 -37 22 -56 l25 -30 -49 -12 c-28 -7 -86 -30 -131 -52 l-81 -39 7 -48
c4 -26 9 -49 11 -51 2 -2 15 1 29 7 l25 12 0 -113 0 -112 29 60 c15 33 31 83
34 110 6 48 6 49 -7 20 -7 -17 -20 -36 -29 -44 -15 -12 -17 -9 -17 37 0 37 4
51 17 56 9 4 21 1 26 -6 6 -10 7 -9 4 4 -5 13 4 19 41 27 26 6 70 12 97 13
l50 3 10 -93 10 -93 40 86 40 85 35 -6 c63 -10 183 -54 286 -104 l101 -49 7
-47 c3 -26 6 -69 6 -95 0 -38 4 -51 19 -59 30 -16 91 -13 97 5 10 24 -15 45
-52 45 l-34 0 0 61 0 61 38 -23 c58 -35 181 -123 247 -176 54 -44 60 -53 63
-91 4 -52 34 -76 87 -70 32 4 40 -2 116 -78 l81 -81 5 -167 c4 -102 10 -169
17 -175 11 -9 44 -14 84 -12 15 1 22 7 22 21 0 22 -28 40 -63 40 -23 0 -24 3
-31 92 -3 50 -6 111 -6 135 l0 44 92 -83 c107 -96 197 -167 286 -227 57 -38
62 -45 63 -79 l1 -37 10 31 10 32 92 -44 c100 -47 240 -91 322 -100 l54 -7 0
-142 c0 -137 1 -142 24 -164 29 -27 102 -39 135 -22 50 27 2 81 -72 81 -23 0
-37 6 -41 16 -3 9 -6 62 -6 118 l0 103 178 6 c97 4 211 13 252 22 41 8 76 15
78 15 1 0 2 -24 2 -54 0 -36 5 -60 16 -70 18 -18 99 -22 109 -5 12 19 -26 49
-62 49 -32 0 -33 1 -33 43 l0 42 123 33 c159 42 217 42 264 2 18 -17 45 -30
58 -30 25 0 25 -1 26 -97 1 -90 14 -240 18 -202 0 9 17 46 36 83 32 61 35 75
35 149 0 45 -5 89 -10 97 -7 10 -8 1 -4 -31 6 -47 -9 -92 -39 -118 -13 -10
-16 1 -22 79 -4 50 -5 94 -2 97 4 3 55 13 114 23 175 29 330 67 605 146 15 4
17 0 12 -25 -9 -42 9 -39 25 4 11 31 19 36 79 54 87 26 255 71 265 71 4 0 7
-18 7 -40 l0 -41 -35 7 c-41 7 -120 -18 -129 -41 -15 -41 44 -71 122 -62 66 7
92 40 92 115 0 31 4 62 8 69 10 16 213 43 327 43 l95 0 0 -86 0 -87 30 56 c17
31 30 70 30 87 0 34 -13 33 127 10 211 -36 401 -144 648 -370 106 -96 117
-110 90 -110 -9 0 -32 -15 -51 -34 -52 -52 -45 -126 13 -126 28 0 91 55 99 86
3 13 8 24 11 24 2 0 66 -57 141 -127 76 -71 170 -155 210 -187 68 -57 72 -62
72 -101 0 -23 3 -90 7 -148 l6 -107 -48 0 c-88 0 -165 -65 -165 -139 0 -37 31
-61 78 -61 47 0 92 22 132 64 l35 37 -4 181 -3 181 33 -22 c134 -87 312 -164
408 -177 45 -6 51 -9 51 -30 0 -76 156 -68 219 12 27 35 317 134 369 127 l32
-5 0 -154 c0 -85 3 -154 8 -154 4 1 24 38 45 83 34 74 37 90 37 162 0 44 -5
87 -10 95 -6 9 -7 -5 -3 -41 5 -54 4 -58 -30 -95 l-36 -39 -1 95 0 96 66 32
c171 84 341 207 520 373 90 84 90 84 195 113 57 16 180 56 273 88 93 32 172
56 175 53 3 -3 29 -70 57 -148 l52 -142 -23 -6 c-71 -20 -117 -74 -119 -141
-1 -44 13 -58 59 -58 66 0 135 72 134 140 0 19 -29 109 -63 200 -35 91 -61
168 -57 171 12 13 447 158 651 218 282 83 596 157 875 206 281 50 748 89 979
83 l119 -3 28 -83 c16 -46 31 -92 34 -102 4 -14 -1 -19 -28 -24 -123 -23 -229
-192 -168 -267 44 -55 177 -15 236 71 45 66 45 121 -4 265 -23 65 -41 123 -41
129 0 20 406 -22 610 -64 133 -28 377 -97 506 -145 169 -62 448 -205 610 -313
351 -234 576 -450 775 -747 88 -131 179 -302 179 -338 0 -23 -1 -24 -39 -14
-137 37 -307 -152 -255 -282 12 -30 25 -43 55 -55 49 -20 47 -20 112 4 100 38
157 117 157 222 l1 63 16 -29 c48 -89 168 -528 189 -694 6 -46 18 -71 29 -60
6 5 -42 250 -70 360 -39 153 -83 292 -125 393 l-37 90 -8 203 c-4 111 -5 202
-2 202 2 0 38 -33 80 -73 98 -94 131 -159 129 -261 0 -39 -7 -93 -15 -119 -19
-60 1 -61 22 -1 16 48 18 209 3 247 -7 17 -9 51 -5 88 l6 61 39 -93 c47 -113
101 -286 125 -403 10 -47 21 -86 25 -86 11 0 10 19 -7 102 -49 231 -203 617
-313 780 -62 92 -82 132 -97 187 -13 52 -32 64 -37 25 -3 -26 -6 -24 -60 42
-71 88 -281 293 -373 365 -114 89 -233 172 -353 244 l-112 68 29 18 c17 10 38
30 48 45 17 26 16 33 -13 206 -17 98 -28 178 -25 178 3 0 69 -34 146 -76 145
-79 327 -194 429 -272 l59 -45 -42 -20 c-62 -29 -103 -81 -99 -125 3 -32 9
-40 41 -56 52 -25 148 -15 222 24 l54 28 88 -91 c183 -190 335 -402 438 -612
56 -113 122 -291 140 -377 3 -16 10 -28 16 -28 27 0 -56 247 -142 419 -114
228 -245 413 -434 611 l-91 95 17 35 c16 34 16 44 -22 290 -21 140 -38 258
-37 262 8 22 312 -244 429 -375 67 -74 78 -91 69 -107 -28 -53 0 -96 71 -108
42 -7 47 -12 101 -92 73 -107 148 -252 183 -353 17 -46 32 -74 37 -69 19 19
-100 279 -198 429 l-53 82 35 20 c18 11 42 34 52 50 10 16 35 111 57 210 32
150 41 179 52 169 21 -17 113 -150 113 -163 0 -6 -16 -37 -35 -69 -19 -32 -35
-60 -35 -62 0 -2 21 20 47 47 54 58 52 59 105 -48 17 -35 35 -60 40 -57 5 3
-11 43 -35 89 l-45 83 5 88 5 89 -47 95 c-25 52 -57 130 -70 175 -18 63 -24
75 -29 55 -3 -14 -15 -72 -27 -130 -13 -58 -24 -106 -25 -108 -1 -2 -21 18
-45 45 -23 26 -88 93 -144 148 -363 360 -820 637 -1319 800 l-129 42 -2 104
c-1 71 -7 116 -19 143 -23 56 -30 38 -11 -29 19 -63 17 -177 -2 -196 -9 -9
-29 -7 -81 5 l-69 17 -7 147 c-6 124 -11 153 -29 187 -49 88 -178 134 -239 85
-24 -19 -28 -29 -28 -75 0 -125 147 -236 253 -190 15 6 17 0 17 -69 0 -42 -3
-76 -7 -76 -5 0 -39 7 -78 15 -179 37 -329 49 -600 50 -148 0 -311 -3 -361 -8
l-92 -8 -105 233 c-58 128 -109 233 -114 234 -4 1 -107 -26 -228 -61z m304
-251 c40 -86 70 -158 68 -160 -2 -3 -56 -13 -119 -24 -220 -37 -437 -90 -640
-157 -76 -25 -141 -44 -142 -42 -7 8 -136 282 -134 284 11 6 855 248 889 254
4 0 39 -69 78 -155z m871 -165 c115 -10 399 -55 408 -64 8 -7 15 -455 8 -455
-4 0 -60 13 -124 29 -236 60 -532 101 -732 101 l-105 0 -42 93 c-23 50 -61
134 -84 184 -23 51 -40 95 -37 98 22 22 517 32 708 14z m-709 -187 c59 -132
72 -168 60 -170 -9 -1 -52 -11 -96 -22 -44 -10 -136 -24 -205 -30 -169 -15
-524 -79 -596 -107 -10 -4 -33 36 -79 132 -36 76 -63 140 -60 143 8 9 205 71
350 111 130 36 460 103 535 109 10 1 40 -53 91 -166z m1589 -12 c284 -105 587
-269 829 -448 162 -119 413 -351 514 -474 l36 -44 -19 -84 c-10 -47 -26 -120
-35 -162 -16 -73 -18 -77 -37 -67 -31 16 -121 6 -153 -18 l-28 -20 -79 88
c-102 115 -334 321 -429 382 -22 15 -27 29 -38 105 -22 148 0 132 -176 132
l-154 0 -94 49 c-143 73 -295 136 -525 216 -9 3 0 24 27 68 73 115 94 172 99
273 l4 91 72 -22 c39 -12 123 -42 186 -65z m-2564 -174 c30 -63 54 -117 54
-120 0 -3 -12 -6 -27 -6 -37 -1 -101 -31 -137 -64 -19 -18 -78 -44 -175 -78
-152 -52 -368 -137 -434 -170 l-38 -19 -44 95 c-25 53 -45 100 -45 106 0 15
465 242 635 310 83 33 151 60 153 60 2 0 28 -51 58 -114z m1488 -51 c171 -18
327 -46 494 -88 l127 -32 3 -63 c3 -54 5 -62 17 -52 8 7 15 27 15 44 0 55 9
59 86 32 129 -45 268 -103 389 -162 l120 -59 -238 -3 -237 -2 5 -23 c17 -77
36 -208 33 -225 -3 -19 -7 -18 -93 17 -141 59 -356 128 -515 165 l-145 33 -3
132 c-2 106 -5 131 -17 131 -12 0 -15 -24 -17 -128 l-3 -128 -140 20 c-219 29
-756 28 -995 -2 -297 -38 -643 -117 -919 -209 -57 -19 -104 -33 -106 -31 -9
13 -96 210 -94 212 25 20 578 231 586 222 2 -2 -1 -16 -7 -32 -6 -16 -9 -43
-5 -61 18 -96 162 -79 263 31 45 48 58 81 49 124 l-6 28 127 27 c221 46 483
87 564 87 l31 0 -40 -37 c-76 -71 -104 -165 -64 -214 17 -21 28 -24 83 -24 79
0 160 37 235 108 57 54 83 99 83 146 l0 31 98 0 c53 0 160 -7 236 -15z m-2463
-508 c-151 -76 -404 -216 -478 -265 -23 -14 -23 -14 -23 34 0 27 -5 67 -10 89
-9 38 -8 41 22 66 46 38 333 222 462 296 l111 63 46 -98 46 -97 -176 -88z
m-9252 128 c66 -19 132 -40 146 -47 24 -11 44 -52 32 -65 -7 -7 -156 54 -178
73 -9 8 -18 11 -21 8 -5 -4 -124 23 -136 31 -7 6 12 35 23 35 7 0 67 -16 134
-35z m11475 -20 c92 -8 179 -17 192 -20 13 -3 35 -7 49 -10 l25 -5 0 -145 0
-145 -45 7 c-54 7 -121 -15 -155 -52 -13 -13 -26 -23 -29 -20 -4 2 -83 13
-176 25 -113 15 -255 24 -424 29 l-254 6 -27 80 c-22 66 -30 79 -46 77 -10 -2
-21 -5 -23 -7 -2 -3 26 -96 47 -152 3 -9 -8 -13 -37 -13 -62 0 -309 -28 -446
-51 -125 -20 -416 -78 -426 -85 -10 -6 -110 219 -102 227 14 14 306 100 488
144 224 55 447 93 635 110 203 18 553 18 754 0z m-1988 -148 c26 -54 44 -100
41 -103 -3 -3 -56 -25 -118 -48 -157 -60 -305 -124 -484 -210 l-151 -73 -13
85 c-6 46 -11 86 -9 87 2 1 71 42 153 90 162 95 514 277 527 273 5 -2 29 -47
54 -101z m2500 59 c172 -45 364 -110 486 -165 l66 -29 11 -54 c6 -29 15 -82
21 -118 6 -36 13 -77 16 -92 6 -28 5 -28 -46 -28 -57 0 -119 -27 -147 -64
l-18 -24 -55 25 c-162 73 -417 163 -530 187 l-25 5 3 201 c3 199 3 200 25 200
12 0 99 -20 193 -44z m-11756 -64 c129 -64 135 -69 138 -99 2 -18 -1 -33 -6
-33 -5 0 -46 22 -92 50 -45 27 -123 69 -171 92 -71 35 -89 47 -89 65 0 21 1
21 43 7 23 -8 103 -45 177 -82z m13016 7 l61 -42 31 -216 c18 -119 35 -232 38
-251 l6 -35 -70 2 c-68 1 -72 3 -134 51 -136 106 -475 311 -567 343 -31 11
-34 17 -57 152 l-6 37 318 0 319 0 61 -41z m-12726 -74 c113 -80 190 -148 190
-166 0 -22 17 -35 22 -15 4 16 273 -209 283 -237 4 -10 19 -23 33 -30 15 -6
65 -39 112 -73 198 -144 376 -246 570 -326 127 -52 134 -60 20 -24 -205 66
-357 137 -525 247 -131 85 -214 149 -434 332 -91 76 -205 165 -254 200 -50 34
-109 77 -133 94 -24 18 -44 31 -44 28 0 -3 -15 2 -32 11 -32 16 -32 17 -10 25
12 5 25 15 28 23 6 16 76 -20 174 -89z m-360 23 c170 -92 210 -121 210 -150 0
-16 -3 -28 -7 -28 -3 0 -54 31 -112 69 -58 38 -136 85 -173 106 -48 26 -68 43
-68 56 0 18 2 19 38 4 20 -9 71 -34 112 -57z m-30 -58 c58 -34 135 -83 173
-110 56 -42 67 -55 67 -79 0 -29 -2 -28 -125 64 -69 52 -150 108 -180 125 -30
17 -55 38 -55 46 0 8 3 14 7 14 4 0 55 -27 113 -60z m336 -31 c92 -65 167
-124 319 -249 163 -134 304 -245 359 -282 31 -21 39 -34 42 -62 4 -42 2 -43
-37 -15 -19 13 -29 29 -29 45 0 14 -12 37 -26 51 -21 21 -32 25 -65 20 -44 -6
-62 7 -319 223 -123 104 -261 209 -297 229 -17 9 -23 21 -23 46 0 19 4 35 8
35 5 0 35 -19 68 -41z m13839 -49 c14 -20 30 -52 35 -71 11 -37 4 -109 -11
-109 -5 0 -9 4 -9 9 0 4 -27 43 -60 86 -61 79 -62 80 -43 147 4 16 7 16 34 -4
16 -12 40 -38 54 -58z m-4722 -17 c19 -43 32 -79 29 -80 -4 -1 -25 -4 -46 -8
-30 -5 -52 -20 -92 -60 -51 -53 -56 -55 -225 -111 -200 -65 -418 -148 -601
-228 -71 -31 -130 -56 -133 -56 -3 0 1 13 10 30 8 16 15 51 15 79 l0 50 98 53
c53 30 98 49 100 43 1 -5 -4 -31 -12 -58 -8 -26 -10 -47 -5 -47 14 0 29 36 36
85 l6 46 107 54 c191 96 633 285 666 285 6 0 27 -35 47 -77z m-931 0 c26 -26
48 -52 48 -58 -1 -5 -35 -31 -78 -58 l-77 -47 -8 82 c-7 81 -7 82 20 105 16
12 32 22 38 23 5 0 31 -21 57 -47z m-8132 -79 c198 -150 474 -385 486 -414 14
-32 64 -63 88 -54 13 5 16 -2 16 -35 0 -23 -3 -41 -6 -41 -14 0 -158 107 -265
197 -64 54 -189 159 -277 233 -148 124 -161 138 -162 168 0 39 -6 42 120 -54z
m10770 52 c63 -8 136 -18 162 -22 l48 -7 -6 -39 c-6 -32 -3 -43 16 -63 45 -48
140 -41 204 15 18 17 39 30 46 30 47 0 397 -120 536 -185 60 -27 74 -38 74
-56 0 -42 27 -59 96 -59 60 0 69 -3 171 -64 132 -78 309 -205 423 -301 97 -82
285 -275 348 -357 l42 -55 9 -349 c5 -192 8 -350 6 -352 -1 -2 -26 41 -55 95
-145 271 -360 527 -620 736 -115 93 -372 262 -500 330 -416 221 -896 352
-1409 385 l-104 7 -54 160 c-29 88 -53 164 -53 169 0 13 484 -1 620 -18z
m-621 -139 c28 -83 51 -155 51 -160 0 -4 -62 -7 -137 -7 -200 0 -436 -17 -702
-51 -481 -61 -934 -169 -1519 -365 -139 -46 -256 -84 -261 -84 -4 0 -13 11
-19 25 -10 22 -9 27 11 39 44 28 233 115 273 125 23 6 59 23 80 38 76 52 487
220 778 318 90 30 169 55 176 55 8 0 9 -13 5 -43 -21 -141 116 -181 227 -67
49 51 83 132 72 175 -5 20 1 23 98 43 177 37 368 70 503 86 72 9 144 17 160
19 17 2 58 5 92 6 l61 1 51 -153z m-2159 61 l0 -83 -61 -39 c-160 -104 -321
-236 -576 -473 -78 -73 -144 -133 -147 -133 -19 0 9 39 141 198 174 210 413
452 538 545 50 37 93 67 98 67 4 0 7 -37 7 -82z m232 -89 l3 -53 -95 -52 c-52
-29 -99 -53 -103 -53 -4 -1 -7 36 -5 81 l3 83 85 53 85 53 12 -29 c7 -17 14
-54 15 -83z m-8259 42 c40 -32 119 -100 177 -150 139 -123 267 -226 365 -296
78 -56 80 -58 85 -106 3 -27 2 -49 -3 -49 -43 0 -427 323 -427 359 0 10 -7 24
-15 31 -12 10 -15 9 -15 -6 0 -13 -26 7 -88 68 -48 48 -104 102 -124 119 -28
23 -38 39 -38 60 0 16 3 29 6 29 3 0 38 -26 77 -59z m9177 -38 c0 -74 -88
-173 -155 -173 -42 0 -55 16 -55 65 1 69 18 87 107 112 101 28 103 28 103 -4z
m-5130 -23 c75 -10 298 -55 306 -62 1 -2 5 -24 9 -49 l7 -46 -99 33 c-251 84
-531 94 -800 29 -83 -20 -93 -20 -93 -6 0 9 4 21 8 27 11 17 200 61 337 77 66
8 246 6 325 -3z m30 -95 c267 -50 516 -176 801 -406 248 -201 331 -274 316
-277 -12 -2 -17 -18 -19 -54 l-3 -50 -145 126 c-342 298 -476 396 -674 492
-131 63 -223 91 -376 115 -110 17 -391 6 -510 -20 -52 -11 -95 -19 -97 -18 -1
2 0 13 4 25 4 16 19 26 57 37 54 15 195 42 261 49 75 8 300 -3 385 -19z m468
-45 c140 -67 286 -165 515 -349 103 -82 217 -171 254 -198 l66 -47 -72 -18
-72 -18 -222 183 c-246 204 -394 308 -540 380 -53 27 -97 52 -97 57 0 24 25
60 42 60 10 0 67 -23 126 -50z m-463 -48 c150 -34 286 -93 429 -185 65 -42 71
-49 92 -108 13 -35 24 -67 24 -71 0 -4 -40 23 -89 60 -127 96 -239 159 -347
198 -108 39 -271 74 -341 74 -28 0 -58 6 -69 15 -25 19 -58 19 -74 0 -8 -10
-30 -15 -65 -15 -46 0 -189 -21 -252 -37 -19 -4 -23 -1 -23 20 0 20 7 26 43
36 165 45 500 52 672 13z m3680 -22 c-14 -22 -28 -61 -32 -85 -5 -43 -10 -48
-87 -102 -44 -31 -89 -56 -100 -55 -10 0 -20 -7 -23 -18 -3 -11 -73 -66 -157
-123 -172 -118 -191 -130 -156 -95 110 110 565 518 577 518 2 0 -8 -18 -22
-40z m-4002 -60 c9 0 17 -7 17 -15 0 -12 -18 -15 -102 -15 -57 0 -143 -7 -193
-15 -121 -20 -125 -19 -125 8 0 22 7 25 94 42 52 9 129 20 173 24 67 6 81 4
99 -11 11 -10 28 -18 37 -18z m302 -5 c54 -14 131 -39 170 -56 81 -34 253
-142 353 -223 62 -50 69 -60 94 -131 l27 -76 -28 23 c-16 13 -65 56 -110 96
-208 185 -384 280 -586 317 -49 9 -99 18 -110 20 -12 3 -26 17 -32 32 l-12 28
6 -28 c5 -26 3 -28 -18 -25 -18 2 -25 10 -27 32 l-4 29 89 -6 c49 -4 133 -18
188 -32z m-3267 -62 c85 -51 290 -153 310 -153 6 0 12 -11 12 -25 0 -14 -2
-25 -4 -25 -41 0 -384 161 -391 183 -10 33 -15 67 -9 67 3 0 40 -21 82 -47z
m2132 -31 c0 -15 -30 -28 -162 -69 -90 -28 -199 -61 -243 -72 -305 -79 -340
-81 -90 -6 99 30 250 79 335 109 85 30 156 55 158 55 1 1 2 -7 2 -17z m4815
-24 c6 -13 21 -28 34 -34 23 -12 18 -15 -86 -68 l-110 -55 -10 34 -11 34 81
56 c44 30 83 55 87 55 3 0 10 -10 15 -22z m-6909 -55 c55 -28 142 -66 192 -83
88 -31 92 -34 92 -63 0 -28 -2 -29 -32 -23 -66 13 -196 59 -279 100 l-84 41
-3 44 c-2 23 0 41 5 39 4 -2 53 -26 109 -55z m2094 21 c0 -8 -15 -21 -33 -29
-52 -21 -412 -112 -532 -134 -175 -31 -187 -33 -181 -23 3 5 27 12 53 16 80
11 359 83 523 135 181 58 170 55 170 35z m1781 -88 c39 -30 162 -134 275 -231
l204 -177 0 -65 0 -65 -37 30 c-41 32 -117 99 -289 257 -60 55 -126 115 -147
133 -25 21 -45 51 -57 85 -10 28 -21 60 -25 70 -11 27 2 21 76 -37z m-3914
-22 c84 -40 270 -104 301 -104 16 0 21 -8 24 -40 3 -38 2 -40 -23 -40 -55 0
-222 50 -319 96 -55 26 -100 48 -100 50 0 7 34 74 38 74 2 0 38 -16 79 -36z
m476 -65 c56 -11 104 -25 106 -31 2 -6 6 -7 10 0 4 6 27 6 61 1 30 -4 96 -8
145 -10 l90 -2 -95 -10 c-88 -9 -399 5 -422 19 -9 6 -11 54 -2 54 3 0 52 -9
107 -21z m205 -72 c111 -1 202 -5 202 -9 0 -19 -231 -48 -386 -48 l-124 0 0
39 0 38 53 -10 c28 -5 143 -10 255 -10z m3432 -162 c90 -81 190 -168 221 -193
56 -45 57 -46 63 -110 4 -35 4 -67 2 -70 -7 -6 -95 68 -196 163 -250 237 -237
222 -270 307 -36 95 -36 97 -7 71 12 -11 96 -86 187 -168z m1896 -76 c-195
-79 -505 -147 -708 -156 l-138 -6 0 57 c0 50 2 57 18 52 42 -12 257 -16 362
-7 75 6 116 6 118 0 3 -6 13 -4 26 4 12 8 60 20 106 26 47 7 119 20 160 30 98
25 116 25 56 0z m-934 -34 l47 -7 7 -55 c3 -29 4 -56 1 -59 -10 -10 -149 17
-245 48 -52 16 -92 31 -90 34 9 8 204 52 218 49 8 -2 36 -7 62 -10z m944 6
c-12 -19 -310 -142 -426 -176 -132 -38 -320 -75 -382 -75 -30 0 -38 4 -38 19
0 10 -3 32 -6 48 l-6 30 139 6 c200 8 411 51 623 125 95 34 104 36 96 23z m20
-20 c-12 -19 -205 -132 -316 -185 -130 -62 -249 -104 -395 -140 -175 -42 -155
-45 -155 17 l0 54 74 6 c191 16 474 99 672 197 135 66 127 63 120 51z m-1173
-75 c55 -19 137 -40 183 -46 l84 -12 0 -55 0 -56 -77 7 c-97 8 -186 29 -272
63 -70 27 -193 94 -186 101 9 9 141 40 155 37 8 -3 59 -20 113 -39z m1123 1
c-82 -68 -210 -155 -312 -211 l-105 -59 -27 26 c-24 25 -25 27 -6 33 115 40
428 196 469 235 5 5 11 9 15 9 3 -1 -12 -15 -34 -33z m-1311 -72 c143 -71 241
-100 370 -111 l85 -7 6 -32 c13 -69 11 -70 -116 -69 -126 2 -224 26 -345 86
-72 36 -245 149 -245 160 0 4 19 12 43 18 23 6 47 13 52 15 6 2 12 4 15 4 2 1
63 -28 135 -64z m-19 -143 c154 -77 249 -101 403 -103 l86 -1 -58 -9 c-60 -9
-102 -32 -136 -74 -10 -14 -29 -25 -43 -25 -81 0 -294 89 -413 173 l-60 43 -3
67 -3 67 64 -45 c35 -24 108 -66 163 -93z m7612 80 c86 -103 137 -208 130
-273 -3 -31 -5 -30 -60 53 -89 134 -149 268 -120 268 5 0 27 -22 50 -48z
m-6822 -146 l11 -35 -56 -21 c-64 -23 -214 -70 -217 -67 -1 1 -4 23 -7 49 l-6
46 122 30 c67 16 127 30 132 31 6 0 15 -14 21 -33z"/>
<path d="M4150 3271 c-5 -11 -10 -27 -10 -36 0 -25 64 -85 91 -85 l22 0 -6
-165 c-3 -91 -4 -165 -2 -165 2 0 14 19 25 43 12 23 32 61 44 84 28 50 45 199
27 230 -8 14 -9 7 -5 -28 7 -53 -11 -97 -50 -122 l-24 -16 5 93 c7 116 1 141
-40 166 -41 25 -63 25 -77 1z"/>
</g>
</svg>
